<mxfile host="app.diagrams.net" modified="2022-09-16T23:05:16.495Z" agent="5.0 (Macintosh; Intel Mac OS X 10_15_7) AppleWebKit/537.36 (KHTML, like Gecko) Chrome/105.0.0.0 Safari/537.36" etag="U7ITHjOz6syhr8Zcb2oQ" version="20.3.1" type="github">
  <diagram id="R2lEEEUBdFMjLlhIrx00" name="Page-1">
    <mxGraphModel dx="3592" dy="2214" grid="1" gridSize="8" guides="1" tooltips="1" connect="1" arrows="1" fold="1" page="1" pageScale="1" pageWidth="850" pageHeight="1100" math="0" shadow="0" extFonts="Permanent Marker^https://fonts.googleapis.com/css?family=Permanent+Marker">
      <root>
        <mxCell id="0" />
        <mxCell id="1" parent="0" />
        <mxCell id="Ww_PX7Yyjb7Hygiwz91s-102" value="" style="shape=link;html=1;rounded=0;strokeWidth=2;fontSize=17;" edge="1" parent="1">
          <mxGeometry relative="1" as="geometry">
            <mxPoint x="-705" y="-613.5" as="sourcePoint" />
            <mxPoint x="-673" y="-613" as="targetPoint" />
          </mxGeometry>
        </mxCell>
        <mxCell id="Ww_PX7Yyjb7Hygiwz91s-103" value="" style="resizable=0;html=1;align=right;verticalAlign=bottom;rounded=0;glass=0;sketch=1;fontSize=17;" connectable="0" vertex="1" parent="Ww_PX7Yyjb7Hygiwz91s-102">
          <mxGeometry x="1" relative="1" as="geometry" />
        </mxCell>
        <mxCell id="Ww_PX7Yyjb7Hygiwz91s-87" value="" style="shape=partialRectangle;whiteSpace=wrap;html=1;bottom=1;right=1;left=1;top=0;fillColor=none;routingCenterX=-0.5;rounded=0;glass=0;sketch=1;fontSize=12;rotation=-90;" vertex="1" parent="1">
          <mxGeometry x="-490.25" y="-547.25" width="42.5" height="37.5" as="geometry" />
        </mxCell>
        <mxCell id="Ww_PX7Yyjb7Hygiwz91s-119" value="" style="endArrow=none;dashed=1;html=1;rounded=0;strokeWidth=1.5;fontSize=9;startSize=11;endSize=3;sourcePerimeterSpacing=-7;targetPerimeterSpacing=-1;jumpStyle=line;jumpSize=3;" edge="1" parent="1">
          <mxGeometry width="50" height="50" relative="1" as="geometry">
            <mxPoint x="-243" y="-882.5" as="sourcePoint" />
            <mxPoint x="-211" y="-882.5" as="targetPoint" />
          </mxGeometry>
        </mxCell>
        <mxCell id="Ww_PX7Yyjb7Hygiwz91s-76" value="Users" style="swimlane;fontStyle=0;childLayout=stackLayout;horizontal=1;startSize=26;horizontalStack=0;resizeParent=1;resizeParentMax=0;resizeLast=0;collapsible=1;marginBottom=0;align=center;fontSize=14;rounded=0;glass=0;sketch=1;" vertex="1" parent="1">
          <mxGeometry x="-561" y="-621" width="72" height="88" as="geometry" />
        </mxCell>
        <mxCell id="Ww_PX7Yyjb7Hygiwz91s-79" value="" style="endArrow=none;html=1;rounded=0;strokeWidth=1;fontSize=15;startSize=11;endSize=3;sourcePerimeterSpacing=-7;targetPerimeterSpacing=-1;jumpStyle=line;jumpSize=3;" edge="1" parent="Ww_PX7Yyjb7Hygiwz91s-76">
          <mxGeometry relative="1" as="geometry">
            <mxPoint x="24" y="43.5" as="sourcePoint" />
            <mxPoint x="48" y="43.5" as="targetPoint" />
          </mxGeometry>
        </mxCell>
        <mxCell id="Ww_PX7Yyjb7Hygiwz91s-80" value="" style="resizable=0;html=1;align=right;verticalAlign=bottom;rounded=0;glass=0;sketch=1;fontSize=15;" connectable="0" vertex="1" parent="Ww_PX7Yyjb7Hygiwz91s-79">
          <mxGeometry x="1" relative="1" as="geometry" />
        </mxCell>
        <mxCell id="Ww_PX7Yyjb7Hygiwz91s-77" value="emails&#xa;name&#xa;birthday" style="text;strokeColor=none;fillColor=none;spacingLeft=4;spacingRight=4;overflow=hidden;rotatable=0;points=[[0,0.5],[1,0.5]];portConstraint=eastwest;fontSize=12;rounded=0;glass=0;sketch=1;fontStyle=0;align=center;" vertex="1" parent="Ww_PX7Yyjb7Hygiwz91s-76">
          <mxGeometry y="26" width="72" height="62" as="geometry" />
        </mxCell>
        <mxCell id="Ww_PX7Yyjb7Hygiwz91s-105" value="" style="endArrow=none;html=1;rounded=0;strokeWidth=2;fontSize=12;startSize=11;endSize=3;sourcePerimeterSpacing=-7;targetPerimeterSpacing=-1;jumpStyle=line;jumpSize=3;" edge="1" parent="1">
          <mxGeometry relative="1" as="geometry">
            <mxPoint x="-709.75" y="-569.5" as="sourcePoint" />
            <mxPoint x="-561" y="-569" as="targetPoint" />
          </mxGeometry>
        </mxCell>
        <mxCell id="Ww_PX7Yyjb7Hygiwz91s-106" value="" style="resizable=0;html=1;align=right;verticalAlign=bottom;rounded=0;glass=0;sketch=1;fontSize=12;" connectable="0" vertex="1" parent="Ww_PX7Yyjb7Hygiwz91s-105">
          <mxGeometry x="1" relative="1" as="geometry" />
        </mxCell>
        <mxCell id="Ww_PX7Yyjb7Hygiwz91s-93" value="" style="shape=link;html=1;rounded=0;strokeWidth=2;fontSize=17;entryX=0.125;entryY=0.492;entryDx=0;entryDy=0;entryPerimeter=0;" edge="1" parent="1">
          <mxGeometry relative="1" as="geometry">
            <mxPoint x="-753" y="-889" as="sourcePoint" />
            <mxPoint x="-625" y="-888.9960000000001" as="targetPoint" />
          </mxGeometry>
        </mxCell>
        <mxCell id="Ww_PX7Yyjb7Hygiwz91s-94" value="" style="resizable=0;html=1;align=right;verticalAlign=bottom;rounded=0;glass=0;sketch=1;fontSize=17;" connectable="0" vertex="1" parent="Ww_PX7Yyjb7Hygiwz91s-93">
          <mxGeometry x="1" relative="1" as="geometry" />
        </mxCell>
        <mxCell id="Ww_PX7Yyjb7Hygiwz91s-86" value="" style="shape=partialRectangle;whiteSpace=wrap;html=1;bottom=1;right=1;left=1;top=0;fillColor=none;routingCenterX=-0.5;rounded=0;glass=0;sketch=1;fontSize=12;rotation=90;" vertex="1" parent="1">
          <mxGeometry x="-599.25" y="-560.25" width="49.5" height="57.5" as="geometry" />
        </mxCell>
        <mxCell id="Ww_PX7Yyjb7Hygiwz91s-73" value="" style="endArrow=none;html=1;rounded=0;strokeWidth=2;fontSize=15;startSize=11;endSize=3;sourcePerimeterSpacing=-7;targetPerimeterSpacing=-1;jumpStyle=line;jumpSize=3;" edge="1" parent="1">
          <mxGeometry relative="1" as="geometry">
            <mxPoint x="-521.5" y="-721" as="sourcePoint" />
            <mxPoint x="-521" y="-621" as="targetPoint" />
          </mxGeometry>
        </mxCell>
        <mxCell id="Ww_PX7Yyjb7Hygiwz91s-74" value="" style="resizable=0;html=1;align=right;verticalAlign=bottom;rounded=0;glass=0;sketch=1;fontSize=15;" connectable="0" vertex="1" parent="Ww_PX7Yyjb7Hygiwz91s-73">
          <mxGeometry x="1" relative="1" as="geometry" />
        </mxCell>
        <mxCell id="Ww_PX7Yyjb7Hygiwz91s-28" value="" style="shape=link;html=1;rounded=0;strokeWidth=2;fontSize=17;entryX=0.125;entryY=0.492;entryDx=0;entryDy=0;entryPerimeter=0;" edge="1" parent="1" target="Ww_PX7Yyjb7Hygiwz91s-30">
          <mxGeometry relative="1" as="geometry">
            <mxPoint x="-521" y="-885" as="sourcePoint" />
            <mxPoint x="-473" y="-885" as="targetPoint" />
          </mxGeometry>
        </mxCell>
        <mxCell id="Ww_PX7Yyjb7Hygiwz91s-29" value="" style="resizable=0;html=1;align=right;verticalAlign=bottom;rounded=0;glass=0;sketch=1;fontSize=17;" connectable="0" vertex="1" parent="Ww_PX7Yyjb7Hygiwz91s-28">
          <mxGeometry x="1" relative="1" as="geometry" />
        </mxCell>
        <mxCell id="Ww_PX7Yyjb7Hygiwz91s-60" value="" style="rounded=0;whiteSpace=wrap;html=1;glass=0;sketch=1;fontSize=15;" vertex="1" parent="1">
          <mxGeometry x="-626.25" y="-953" width="112" height="136" as="geometry" />
        </mxCell>
        <mxCell id="Ww_PX7Yyjb7Hygiwz91s-19" value="Events" style="swimlane;fontStyle=0;childLayout=stackLayout;horizontal=1;startSize=26;horizontalStack=0;resizeParent=1;resizeParentMax=0;resizeLast=0;collapsible=1;marginBottom=0;align=center;fontSize=14;rounded=0;glass=0;sketch=1;" vertex="1" parent="1">
          <mxGeometry x="-615.5" y="-942" width="90" height="116" as="geometry" />
        </mxCell>
        <mxCell id="Ww_PX7Yyjb7Hygiwz91s-20" value="ID" style="text;strokeColor=none;fillColor=none;spacingLeft=4;spacingRight=4;overflow=hidden;rotatable=0;points=[[0,0.5],[1,0.5]];portConstraint=eastwest;fontSize=12;rounded=0;glass=0;sketch=1;fontStyle=4;align=center;" vertex="1" parent="Ww_PX7Yyjb7Hygiwz91s-19">
          <mxGeometry y="26" width="90" height="30" as="geometry" />
        </mxCell>
        <mxCell id="Ww_PX7Yyjb7Hygiwz91s-21" value="title" style="text;strokeColor=none;fillColor=none;spacingLeft=4;spacingRight=4;overflow=hidden;rotatable=0;points=[[0,0.5],[1,0.5]];portConstraint=eastwest;fontSize=12;rounded=0;glass=0;sketch=1;align=center;" vertex="1" parent="Ww_PX7Yyjb7Hygiwz91s-19">
          <mxGeometry y="56" width="90" height="30" as="geometry" />
        </mxCell>
        <mxCell id="Ww_PX7Yyjb7Hygiwz91s-22" value="descriptionÂ " style="text;strokeColor=none;fillColor=none;spacingLeft=4;spacingRight=4;overflow=hidden;rotatable=0;points=[[0,0.5],[1,0.5]];portConstraint=eastwest;fontSize=12;rounded=0;glass=0;sketch=1;align=center;" vertex="1" parent="Ww_PX7Yyjb7Hygiwz91s-19">
          <mxGeometry y="86" width="90" height="30" as="geometry" />
        </mxCell>
        <mxCell id="Ww_PX7Yyjb7Hygiwz91s-30" value="occur" style="shape=rhombus;perimeter=rhombusPerimeter;whiteSpace=wrap;html=1;align=center;rounded=0;glass=0;sketch=1;fontSize=17;" vertex="1" parent="1">
          <mxGeometry x="-443" y="-915" width="80" height="62" as="geometry" />
        </mxCell>
        <mxCell id="Ww_PX7Yyjb7Hygiwz91s-32" value="" style="endArrow=classic;html=1;rounded=0;strokeWidth=2;fontSize=17;" edge="1" parent="1">
          <mxGeometry relative="1" as="geometry">
            <mxPoint x="-363" y="-885.5" as="sourcePoint" />
            <mxPoint x="-313" y="-885" as="targetPoint" />
          </mxGeometry>
        </mxCell>
        <mxCell id="Ww_PX7Yyjb7Hygiwz91s-34" value="When" style="swimlane;fontStyle=0;childLayout=stackLayout;horizontal=1;startSize=26;horizontalStack=0;resizeParent=1;resizeParentMax=0;resizeLast=0;collapsible=1;marginBottom=0;align=center;fontSize=14;rounded=0;glass=0;sketch=1;" vertex="1" parent="1">
          <mxGeometry x="-313" y="-927" width="70" height="86" as="geometry" />
        </mxCell>
        <mxCell id="Ww_PX7Yyjb7Hygiwz91s-35" value="ID" style="text;strokeColor=none;fillColor=none;spacingLeft=4;spacingRight=4;overflow=hidden;rotatable=0;points=[[0,0.5],[1,0.5]];portConstraint=eastwest;fontSize=12;rounded=0;glass=0;sketch=1;fontStyle=4;align=center;" vertex="1" parent="Ww_PX7Yyjb7Hygiwz91s-34">
          <mxGeometry y="26" width="70" height="30" as="geometry" />
        </mxCell>
        <mxCell id="Ww_PX7Yyjb7Hygiwz91s-36" value="date" style="text;strokeColor=none;fillColor=none;spacingLeft=4;spacingRight=4;overflow=hidden;rotatable=0;points=[[0,0.5],[1,0.5]];portConstraint=eastwest;fontSize=12;rounded=0;glass=0;sketch=1;align=center;" vertex="1" parent="Ww_PX7Yyjb7Hygiwz91s-34">
          <mxGeometry y="56" width="70" height="30" as="geometry" />
        </mxCell>
        <mxCell id="Ww_PX7Yyjb7Hygiwz91s-38" value="" style="endArrow=none;dashed=1;html=1;dashPattern=1 3;strokeWidth=2;rounded=0;fontSize=17;" edge="1" parent="1">
          <mxGeometry width="50" height="50" relative="1" as="geometry">
            <mxPoint x="-243" y="-882.5" as="sourcePoint" />
            <mxPoint x="-213" y="-882.5" as="targetPoint" />
            <Array as="points">
              <mxPoint x="-223" y="-882.5" />
            </Array>
          </mxGeometry>
        </mxCell>
        <mxCell id="Ww_PX7Yyjb7Hygiwz91s-39" value="" style="endArrow=none;dashed=1;html=1;dashPattern=1 3;strokeWidth=2;rounded=0;fontSize=17;" edge="1" parent="1">
          <mxGeometry width="50" height="50" relative="1" as="geometry">
            <mxPoint x="-133" y="-882.5" as="sourcePoint" />
            <mxPoint x="-103" y="-882.5" as="targetPoint" />
            <Array as="points" />
          </mxGeometry>
        </mxCell>
        <mxCell id="Ww_PX7Yyjb7Hygiwz91s-40" value="&lt;font style=&quot;font-size: 12px;&quot;&gt;when_recur&lt;/font&gt;" style="shape=rhombus;perimeter=rhombusPerimeter;whiteSpace=wrap;html=1;align=center;rounded=0;glass=0;sketch=1;fontSize=17;" vertex="1" parent="1">
          <mxGeometry x="-213" y="-913" width="80" height="62" as="geometry" />
        </mxCell>
        <mxCell id="Ww_PX7Yyjb7Hygiwz91s-44" value="Recur" style="swimlane;fontStyle=0;childLayout=stackLayout;horizontal=1;startSize=26;horizontalStack=0;resizeParent=1;resizeParentMax=0;resizeLast=0;collapsible=1;marginBottom=0;align=center;fontSize=14;rounded=0;glass=0;sketch=1;" vertex="1" parent="1">
          <mxGeometry x="-103" y="-928" width="70" height="86" as="geometry" />
        </mxCell>
        <mxCell id="Ww_PX7Yyjb7Hygiwz91s-45" value="ID" style="text;strokeColor=none;fillColor=none;spacingLeft=4;spacingRight=4;overflow=hidden;rotatable=0;points=[[0,0.5],[1,0.5]];portConstraint=eastwest;fontSize=12;rounded=0;glass=0;sketch=1;fontStyle=4;align=center;" vertex="1" parent="Ww_PX7Yyjb7Hygiwz91s-44">
          <mxGeometry y="26" width="70" height="30" as="geometry" />
        </mxCell>
        <mxCell id="Ww_PX7Yyjb7Hygiwz91s-46" value="end" style="text;strokeColor=none;fillColor=none;spacingLeft=4;spacingRight=4;overflow=hidden;rotatable=0;points=[[0,0.5],[1,0.5]];portConstraint=eastwest;fontSize=12;rounded=0;glass=0;sketch=1;align=center;" vertex="1" parent="Ww_PX7Yyjb7Hygiwz91s-44">
          <mxGeometry y="56" width="70" height="30" as="geometry" />
        </mxCell>
        <mxCell id="Ww_PX7Yyjb7Hygiwz91s-47" value="" style="shape=partialRectangle;whiteSpace=wrap;html=1;bottom=1;right=1;left=1;top=0;fillColor=none;routingCenterX=-0.5;rounded=0;glass=0;sketch=1;fontSize=12;rotation=-180;" vertex="1" parent="1">
          <mxGeometry x="-320.5" y="-823" width="85" height="30" as="geometry" />
        </mxCell>
        <mxCell id="Ww_PX7Yyjb7Hygiwz91s-49" value="&lt;font style=&quot;font-size: 15px;&quot;&gt;all day&lt;/font&gt;" style="rounded=0;whiteSpace=wrap;html=1;fontSize=17;" vertex="1" parent="1">
          <mxGeometry x="-353" y="-793" width="64" height="32" as="geometry" />
        </mxCell>
        <mxCell id="Ww_PX7Yyjb7Hygiwz91s-50" value="time range" style="swimlane;fontStyle=0;childLayout=stackLayout;horizontal=1;startSize=26;horizontalStack=0;resizeParent=1;resizeParentMax=0;resizeLast=0;collapsible=1;marginBottom=0;align=center;fontSize=14;rounded=0;glass=0;sketch=1;" vertex="1" parent="1">
          <mxGeometry x="-281.5" y="-793" width="90" height="86" as="geometry" />
        </mxCell>
        <mxCell id="Ww_PX7Yyjb7Hygiwz91s-51" value="start" style="text;strokeColor=none;fillColor=none;spacingLeft=4;spacingRight=4;overflow=hidden;rotatable=0;points=[[0,0.5],[1,0.5]];portConstraint=eastwest;fontSize=12;rounded=0;glass=0;sketch=1;fontStyle=0;align=center;" vertex="1" parent="Ww_PX7Yyjb7Hygiwz91s-50">
          <mxGeometry y="26" width="90" height="30" as="geometry" />
        </mxCell>
        <mxCell id="Ww_PX7Yyjb7Hygiwz91s-52" value="end" style="text;strokeColor=none;fillColor=none;spacingLeft=4;spacingRight=4;overflow=hidden;rotatable=0;points=[[0,0.5],[1,0.5]];portConstraint=eastwest;fontSize=12;rounded=0;glass=0;sketch=1;align=center;" vertex="1" parent="Ww_PX7Yyjb7Hygiwz91s-50">
          <mxGeometry y="56" width="90" height="30" as="geometry" />
        </mxCell>
        <mxCell id="Ww_PX7Yyjb7Hygiwz91s-54" value="" style="endArrow=classic;html=1;strokeWidth=2;fontSize=12;rounded=0;endSize=3;startSize=11;jumpSize=3;jumpStyle=line;fillColor=#f5f5f5;strokeColor=#666666;targetPerimeterSpacing=-1;sourcePerimeterSpacing=-7;" edge="1" parent="1">
          <mxGeometry width="50" height="50" relative="1" as="geometry">
            <mxPoint x="-278.5" y="-818" as="sourcePoint" />
            <mxPoint x="-278.5" y="-842" as="targetPoint" />
          </mxGeometry>
        </mxCell>
        <mxCell id="Ww_PX7Yyjb7Hygiwz91s-57" value="" style="shape=partialRectangle;whiteSpace=wrap;html=1;bottom=1;right=1;left=1;top=0;fillColor=none;routingCenterX=-0.5;rounded=0;glass=0;sketch=1;fontSize=12;rotation=-180;" vertex="1" parent="1">
          <mxGeometry x="-610.5" y="-793" width="85" height="30" as="geometry" />
        </mxCell>
        <mxCell id="Ww_PX7Yyjb7Hygiwz91s-58" value="" style="endArrow=classic;html=1;strokeWidth=2;fontSize=12;rounded=0;endSize=3;startSize=11;jumpSize=3;jumpStyle=line;fillColor=#f5f5f5;strokeColor=#666666;targetPerimeterSpacing=-1;sourcePerimeterSpacing=-7;" edge="1" parent="1">
          <mxGeometry width="50" height="50" relative="1" as="geometry">
            <mxPoint x="-568" y="-797" as="sourcePoint" />
            <mxPoint x="-568.2717391304348" y="-822" as="targetPoint" />
          </mxGeometry>
        </mxCell>
        <mxCell id="Ww_PX7Yyjb7Hygiwz91s-62" value="Focustime" style="swimlane;fontStyle=0;childLayout=stackLayout;horizontal=1;startSize=26;horizontalStack=0;resizeParent=1;resizeParentMax=0;resizeLast=0;collapsible=1;marginBottom=0;align=center;fontSize=14;rounded=0;glass=0;sketch=1;" vertex="1" parent="1">
          <mxGeometry x="-665" y="-761" width="90" height="56" as="geometry" />
        </mxCell>
        <mxCell id="Ww_PX7Yyjb7Hygiwz91s-63" value="autodecline" style="text;strokeColor=none;fillColor=none;spacingLeft=4;spacingRight=4;overflow=hidden;rotatable=0;points=[[0,0.5],[1,0.5]];portConstraint=eastwest;fontSize=12;rounded=0;glass=0;sketch=1;fontStyle=0;align=center;" vertex="1" parent="Ww_PX7Yyjb7Hygiwz91s-62">
          <mxGeometry y="26" width="90" height="30" as="geometry" />
        </mxCell>
        <mxCell id="Ww_PX7Yyjb7Hygiwz91s-65" value="meeting" style="rounded=0;whiteSpace=wrap;html=1;glass=0;sketch=1;fontSize=15;" vertex="1" parent="1">
          <mxGeometry x="-561" y="-761" width="80" height="40" as="geometry" />
        </mxCell>
        <mxCell id="Ww_PX7Yyjb7Hygiwz91s-66" value="invite" style="shape=rhombus;perimeter=rhombusPerimeter;whiteSpace=wrap;html=1;align=center;rounded=0;glass=0;sketch=1;fontSize=17;" vertex="1" parent="1">
          <mxGeometry x="-553" y="-693" width="64" height="40" as="geometry" />
        </mxCell>
        <mxCell id="Ww_PX7Yyjb7Hygiwz91s-85" value="share" style="shape=rhombus;perimeter=rhombusPerimeter;whiteSpace=wrap;html=1;align=center;rounded=0;glass=0;sketch=1;fontSize=17;" vertex="1" parent="1">
          <mxGeometry x="-567.5" y="-525" width="85" height="40" as="geometry" />
        </mxCell>
        <mxCell id="Ww_PX7Yyjb7Hygiwz91s-88" value="" style="rounded=0;whiteSpace=wrap;html=1;glass=0;sketch=1;fontSize=15;" vertex="1" parent="1">
          <mxGeometry x="-805" y="-645" width="104" height="109" as="geometry" />
        </mxCell>
        <mxCell id="Ww_PX7Yyjb7Hygiwz91s-95" value="" style="shape=link;html=1;rounded=0;strokeWidth=2;fontSize=17;" edge="1" parent="1">
          <mxGeometry relative="1" as="geometry">
            <mxPoint x="-753" y="-893" as="sourcePoint" />
            <mxPoint x="-753.5" y="-805" as="targetPoint" />
          </mxGeometry>
        </mxCell>
        <mxCell id="Ww_PX7Yyjb7Hygiwz91s-96" value="" style="resizable=0;html=1;align=right;verticalAlign=bottom;rounded=0;glass=0;sketch=1;fontSize=17;" connectable="0" vertex="1" parent="Ww_PX7Yyjb7Hygiwz91s-95">
          <mxGeometry x="1" relative="1" as="geometry" />
        </mxCell>
        <mxCell id="Ww_PX7Yyjb7Hygiwz91s-97" value="owned" style="shape=rhombus;double=1;perimeter=rhombusPerimeter;whiteSpace=wrap;html=1;align=center;rounded=0;glass=0;sketch=1;fontSize=15;" vertex="1" parent="1">
          <mxGeometry x="-813" y="-807" width="116" height="50" as="geometry" />
        </mxCell>
        <mxCell id="Ww_PX7Yyjb7Hygiwz91s-100" value="&lt;font style=&quot;font-size: 12px;&quot;&gt;owned&lt;/font&gt;" style="shape=rhombus;double=1;perimeter=rhombusPerimeter;whiteSpace=wrap;html=1;align=center;rounded=0;glass=0;sketch=1;fontSize=15;strokeWidth=0.7;" vertex="1" parent="1">
          <mxGeometry x="-674.25" y="-629" width="75" height="32" as="geometry" />
        </mxCell>
        <mxCell id="Ww_PX7Yyjb7Hygiwz91s-104" value="" style="endArrow=classic;html=1;rounded=0;strokeWidth=1;fontSize=17;" edge="1" parent="1">
          <mxGeometry relative="1" as="geometry">
            <mxPoint x="-609" y="-613.5" as="sourcePoint" />
            <mxPoint x="-559" y="-613" as="targetPoint" />
          </mxGeometry>
        </mxCell>
        <mxCell id="Ww_PX7Yyjb7Hygiwz91s-101" value="&lt;font style=&quot;font-size: 12px;&quot;&gt;shared&lt;/font&gt;" style="shape=rhombus;perimeter=rhombusPerimeter;whiteSpace=wrap;html=1;align=center;rounded=0;glass=0;sketch=1;fontSize=17;" vertex="1" parent="1">
          <mxGeometry x="-681" y="-589" width="72" height="40" as="geometry" />
        </mxCell>
        <mxCell id="Ww_PX7Yyjb7Hygiwz91s-109" value="" style="endArrow=none;dashed=1;html=1;dashPattern=1 3;strokeWidth=2;rounded=0;fontSize=17;" edge="1" parent="1">
          <mxGeometry width="50" height="50" relative="1" as="geometry">
            <mxPoint x="-483" y="-741.5" as="sourcePoint" />
            <mxPoint x="-453" y="-741.5" as="targetPoint" />
            <Array as="points">
              <mxPoint x="-463" y="-741.5" />
            </Array>
          </mxGeometry>
        </mxCell>
        <mxCell id="Ww_PX7Yyjb7Hygiwz91s-110" value="&lt;font style=&quot;font-size: 11px;&quot;&gt;meet_room&lt;/font&gt;" style="shape=rhombus;perimeter=rhombusPerimeter;whiteSpace=wrap;html=1;align=center;rounded=0;glass=0;sketch=1;fontSize=17;" vertex="1" parent="1">
          <mxGeometry x="-457" y="-761" width="64" height="35" as="geometry" />
        </mxCell>
        <mxCell id="Ww_PX7Yyjb7Hygiwz91s-113" value="" style="endArrow=classic;html=1;rounded=0;strokeWidth=1.5;fontSize=17;entryX=0.597;entryY=-0.017;entryDx=0;entryDy=0;entryPerimeter=0;" edge="1" parent="1" target="Ww_PX7Yyjb7Hygiwz91s-114">
          <mxGeometry relative="1" as="geometry">
            <mxPoint x="-393" y="-743" as="sourcePoint" />
            <mxPoint x="-365" y="-743" as="targetPoint" />
            <Array as="points">
              <mxPoint x="-365" y="-743" />
            </Array>
          </mxGeometry>
        </mxCell>
        <mxCell id="Ww_PX7Yyjb7Hygiwz91s-114" value="Rooms" style="swimlane;fontStyle=0;childLayout=stackLayout;horizontal=1;startSize=26;horizontalStack=0;resizeParent=1;resizeParentMax=0;resizeLast=0;collapsible=1;marginBottom=0;align=center;fontSize=14;rounded=0;glass=0;sketch=1;" vertex="1" parent="1">
          <mxGeometry x="-408" y="-693" width="72" height="118" as="geometry" />
        </mxCell>
        <mxCell id="Ww_PX7Yyjb7Hygiwz91s-115" value="ID" style="text;strokeColor=none;fillColor=none;spacingLeft=4;spacingRight=4;overflow=hidden;rotatable=0;points=[[0,0.5],[1,0.5]];portConstraint=eastwest;fontSize=12;rounded=0;glass=0;sketch=1;fontStyle=4;align=center;" vertex="1" parent="Ww_PX7Yyjb7Hygiwz91s-114">
          <mxGeometry y="26" width="72" height="22" as="geometry" />
        </mxCell>
        <mxCell id="Ww_PX7Yyjb7Hygiwz91s-116" value="floor&#xa;building" style="text;strokeColor=none;fillColor=none;spacingLeft=4;spacingRight=4;overflow=hidden;rotatable=0;points=[[0,0.5],[1,0.5]];portConstraint=eastwest;fontSize=12;rounded=0;glass=0;sketch=1;align=center;" vertex="1" parent="Ww_PX7Yyjb7Hygiwz91s-114">
          <mxGeometry y="48" width="72" height="32" as="geometry" />
        </mxCell>
        <mxCell id="Ww_PX7Yyjb7Hygiwz91s-117" value="link" style="text;strokeColor=none;fillColor=none;spacingLeft=4;spacingRight=4;overflow=hidden;rotatable=0;points=[[0,0.5],[1,0.5]];portConstraint=eastwest;fontSize=12;rounded=0;glass=0;sketch=1;align=center;" vertex="1" parent="Ww_PX7Yyjb7Hygiwz91s-114">
          <mxGeometry y="80" width="72" height="38" as="geometry" />
        </mxCell>
        <mxCell id="Ww_PX7Yyjb7Hygiwz91s-118" value="" style="endArrow=none;dashed=1;html=1;rounded=0;strokeWidth=1.5;fontSize=9;startSize=11;endSize=3;sourcePerimeterSpacing=-7;targetPerimeterSpacing=-1;jumpStyle=line;jumpSize=3;" edge="1" parent="Ww_PX7Yyjb7Hygiwz91s-114">
          <mxGeometry width="50" height="50" relative="1" as="geometry">
            <mxPoint x="20" y="104" as="sourcePoint" />
            <mxPoint x="52" y="104" as="targetPoint" />
          </mxGeometry>
        </mxCell>
        <mxCell id="Ww_PX7Yyjb7Hygiwz91s-120" value="" style="endArrow=none;dashed=1;html=1;rounded=0;strokeWidth=1.5;fontSize=9;startSize=11;endSize=3;sourcePerimeterSpacing=-7;targetPerimeterSpacing=-1;jumpStyle=line;jumpSize=3;" edge="1" parent="1">
          <mxGeometry width="50" height="50" relative="1" as="geometry">
            <mxPoint x="-135" y="-882.5" as="sourcePoint" />
            <mxPoint x="-103" y="-882.5" as="targetPoint" />
          </mxGeometry>
        </mxCell>
        <mxCell id="Ww_PX7Yyjb7Hygiwz91s-121" value="&lt;font style=&quot;font-size: 12px;&quot;&gt;calender_id&lt;/font&gt;" style="text;html=1;align=center;verticalAlign=middle;resizable=0;points=[];autosize=1;strokeColor=none;fillColor=none;fontSize=9;" vertex="1" parent="1">
          <mxGeometry x="-647.5" y="-517" width="80" height="32" as="geometry" />
        </mxCell>
        <mxCell id="Ww_PX7Yyjb7Hygiwz91s-122" value="&lt;font style=&quot;font-size: 12px;&quot;&gt;user_email&lt;/font&gt;" style="text;html=1;align=center;verticalAlign=middle;resizable=0;points=[];autosize=1;strokeColor=none;fillColor=none;fontSize=9;" vertex="1" parent="1">
          <mxGeometry x="-488" y="-517" width="80" height="32" as="geometry" />
        </mxCell>
        <mxCell id="Kzq7kg4RndgsLbTmRLNH-1" value="&lt;font style=&quot;font-size: 22px;&quot;&gt;Homework 1&amp;nbsp;&lt;br&gt;Jie Liu (jl5788) &lt;br&gt;9.16.2022&lt;/font&gt;" style="text;html=1;align=center;verticalAlign=middle;resizable=0;points=[];autosize=1;strokeColor=none;fillColor=none;fontSize=12;" vertex="1" parent="1">
          <mxGeometry x="-576" y="-1072" width="160" height="96" as="geometry" />
        </mxCell>
        <mxCell id="Kzq7kg4RndgsLbTmRLNH-2" value="Problem 1" style="text;html=1;align=center;verticalAlign=middle;resizable=0;points=[];autosize=1;strokeColor=none;fillColor=none;fontSize=22;" vertex="1" parent="1">
          <mxGeometry x="-829" y="-976" width="120" height="48" as="geometry" />
        </mxCell>
        <mxCell id="Kzq7kg4RndgsLbTmRLNH-4" value="" style="endArrow=classic;html=1;rounded=0;strokeWidth=2;fontSize=17;entryX=0.5;entryY=0;entryDx=0;entryDy=0;" edge="1" parent="1" target="Ww_PX7Yyjb7Hygiwz91s-88">
          <mxGeometry relative="1" as="geometry">
            <mxPoint x="-755" y="-757" as="sourcePoint" />
            <mxPoint x="-757" y="-653" as="targetPoint" />
          </mxGeometry>
        </mxCell>
        <mxCell id="Kzq7kg4RndgsLbTmRLNH-5" value="&lt;font style=&quot;font-size: 18px;&quot;&gt;Assumption:&amp;nbsp; &amp;nbsp; &amp;nbsp; &amp;nbsp; &amp;nbsp; &amp;nbsp; &amp;nbsp; &amp;nbsp; &amp;nbsp; &amp;nbsp; &amp;nbsp; &amp;nbsp; &amp;nbsp; &amp;nbsp; &amp;nbsp; &amp;nbsp; &amp;nbsp; &amp;nbsp; &amp;nbsp; &amp;nbsp; &amp;nbsp; &amp;nbsp; &amp;nbsp; &amp;nbsp; &amp;nbsp; &amp;nbsp; &amp;nbsp; &amp;nbsp; &amp;nbsp; &amp;nbsp; &amp;nbsp; &amp;nbsp; &amp;nbsp; &amp;nbsp; &amp;nbsp; &amp;nbsp; &amp;nbsp; &amp;nbsp; &amp;nbsp; &amp;nbsp;&lt;br&gt;&amp;nbsp; &amp;nbsp;1. A calender is owned by exact one user&amp;nbsp; &amp;nbsp; &amp;nbsp; &amp;nbsp; &amp;nbsp; &amp;nbsp; &amp;nbsp; &amp;nbsp; &amp;nbsp; &amp;nbsp; &amp;nbsp; &amp;nbsp; &amp;nbsp; &amp;nbsp; &amp;nbsp; &amp;nbsp; &amp;nbsp; &amp;nbsp; &amp;nbsp;&lt;br&gt;2. A user can shre and be shared with ant number of calenders&lt;br&gt;&amp;nbsp;3. Entity Users, Rooms ,When and Recur are strong entities&amp;nbsp; &amp;nbsp; &amp;nbsp;&lt;br&gt;4. Entity Calenders and Events are weak entities&amp;nbsp; &amp;nbsp; &amp;nbsp; &amp;nbsp; &amp;nbsp; &amp;nbsp; &amp;nbsp; &amp;nbsp; &amp;nbsp; &amp;nbsp; &amp;nbsp;&amp;nbsp;&lt;br&gt;&lt;br&gt;&lt;br&gt;&lt;br&gt;&amp;nbsp; &amp;nbsp; &amp;nbsp; &amp;nbsp; &amp;nbsp; &amp;nbsp; &amp;nbsp; &amp;nbsp; &amp;nbsp; &amp;nbsp; &amp;nbsp;&amp;nbsp;&lt;br&gt;&lt;/font&gt;" style="text;html=1;align=center;verticalAlign=middle;resizable=0;points=[];autosize=1;strokeColor=none;fillColor=none;fontSize=22;" vertex="1" parent="1">
          <mxGeometry x="-853" y="-392" width="544" height="256" as="geometry" />
        </mxCell>
        <mxCell id="Kzq7kg4RndgsLbTmRLNH-15" value="For last question P3, we can add a relationship named record_note between Entity Users and Meeting." style="text;html=1;align=center;verticalAlign=middle;resizable=0;points=[];autosize=1;strokeColor=none;fillColor=none;fontSize=18;" vertex="1" parent="1">
          <mxGeometry x="-837" y="-216" width="840" height="40" as="geometry" />
        </mxCell>
        <mxCell id="Kzq7kg4RndgsLbTmRLNH-17" value="Problem 2" style="text;html=1;align=center;verticalAlign=middle;resizable=0;points=[];autosize=1;strokeColor=none;fillColor=none;fontSize=22;" vertex="1" parent="1">
          <mxGeometry x="48" y="-1043" width="120" height="48" as="geometry" />
        </mxCell>
        <mxCell id="Kzq7kg4RndgsLbTmRLNH-111" value="" style="endArrow=none;html=1;rounded=0;strokeWidth=2;fontSize=15;startSize=11;endSize=3;sourcePerimeterSpacing=-7;targetPerimeterSpacing=-1;jumpStyle=line;jumpSize=3;" edge="1" parent="1">
          <mxGeometry relative="1" as="geometry">
            <mxPoint x="285.5" y="-752" as="sourcePoint" />
            <mxPoint x="286" y="-618" as="targetPoint" />
          </mxGeometry>
        </mxCell>
        <mxCell id="Kzq7kg4RndgsLbTmRLNH-112" value="" style="resizable=0;html=1;align=right;verticalAlign=bottom;rounded=0;glass=0;sketch=1;fontSize=15;" connectable="0" vertex="1" parent="Kzq7kg4RndgsLbTmRLNH-111">
          <mxGeometry x="1" relative="1" as="geometry" />
        </mxCell>
        <mxCell id="Kzq7kg4RndgsLbTmRLNH-113" value="" style="endArrow=classic;html=1;rounded=0;strokeWidth=2;fontSize=17;" edge="1" parent="1">
          <mxGeometry relative="1" as="geometry">
            <mxPoint x="178" y="-903.5" as="sourcePoint" />
            <mxPoint x="136" y="-903.5" as="targetPoint" />
          </mxGeometry>
        </mxCell>
        <mxCell id="Kzq7kg4RndgsLbTmRLNH-114" value="" style="shape=link;html=1;rounded=0;strokeWidth=2;fontSize=17;entryX=0.125;entryY=0.492;entryDx=0;entryDy=0;entryPerimeter=0;" edge="1" parent="1">
          <mxGeometry relative="1" as="geometry">
            <mxPoint x="228" y="-903.5" as="sourcePoint" />
            <mxPoint x="316" y="-902.9960000000001" as="targetPoint" />
          </mxGeometry>
        </mxCell>
        <mxCell id="Kzq7kg4RndgsLbTmRLNH-115" value="" style="resizable=0;html=1;align=right;verticalAlign=bottom;rounded=0;glass=0;sketch=1;fontSize=17;" connectable="0" vertex="1" parent="Kzq7kg4RndgsLbTmRLNH-114">
          <mxGeometry x="1" relative="1" as="geometry" />
        </mxCell>
        <mxCell id="Kzq7kg4RndgsLbTmRLNH-116" value="" style="shape=link;html=1;rounded=0;strokeWidth=2;fontSize=17;entryX=0.125;entryY=0.492;entryDx=0;entryDy=0;entryPerimeter=0;" edge="1" parent="1">
          <mxGeometry relative="1" as="geometry">
            <mxPoint x="384" y="-907.5" as="sourcePoint" />
            <mxPoint x="472" y="-906.9960000000001" as="targetPoint" />
          </mxGeometry>
        </mxCell>
        <mxCell id="Kzq7kg4RndgsLbTmRLNH-117" value="" style="resizable=0;html=1;align=right;verticalAlign=bottom;rounded=0;glass=0;sketch=1;fontSize=17;" connectable="0" vertex="1" parent="Kzq7kg4RndgsLbTmRLNH-116">
          <mxGeometry x="1" relative="1" as="geometry" />
        </mxCell>
        <mxCell id="Kzq7kg4RndgsLbTmRLNH-118" value="" style="rounded=0;whiteSpace=wrap;html=1;glass=0;sketch=1;fontSize=15;" vertex="1" parent="1">
          <mxGeometry x="294" y="-963" width="96" height="120" as="geometry" />
        </mxCell>
        <mxCell id="Kzq7kg4RndgsLbTmRLNH-119" value="Issues" style="swimlane;fontStyle=0;childLayout=stackLayout;horizontal=1;startSize=26;horizontalStack=0;resizeParent=1;resizeParentMax=0;resizeLast=0;collapsible=1;marginBottom=0;align=center;fontSize=14;rounded=0;glass=0;sketch=1;" vertex="1" parent="1">
          <mxGeometry x="300" y="-954" width="84" height="102" as="geometry" />
        </mxCell>
        <mxCell id="Kzq7kg4RndgsLbTmRLNH-120" value="ID" style="text;strokeColor=none;fillColor=none;spacingLeft=4;spacingRight=4;overflow=hidden;rotatable=0;points=[[0,0.5],[1,0.5]];portConstraint=eastwest;fontSize=15;rounded=0;glass=0;sketch=1;fontStyle=0;align=center;" vertex="1" parent="Kzq7kg4RndgsLbTmRLNH-119">
          <mxGeometry y="26" width="84" height="22" as="geometry" />
        </mxCell>
        <mxCell id="Kzq7kg4RndgsLbTmRLNH-121" value="" style="endArrow=none;dashed=1;html=1;rounded=0;strokeWidth=1.5;fontSize=9;startSize=11;endSize=3;sourcePerimeterSpacing=-7;targetPerimeterSpacing=-1;jumpStyle=line;jumpSize=3;" edge="1" parent="Kzq7kg4RndgsLbTmRLNH-119">
          <mxGeometry width="50" height="50" relative="1" as="geometry">
            <mxPoint x="26" y="50.5" as="sourcePoint" />
            <mxPoint x="58" y="50.5" as="targetPoint" />
          </mxGeometry>
        </mxCell>
        <mxCell id="Kzq7kg4RndgsLbTmRLNH-122" value="title" style="text;strokeColor=none;fillColor=none;spacingLeft=4;spacingRight=4;overflow=hidden;rotatable=0;points=[[0,0.5],[1,0.5]];portConstraint=eastwest;fontSize=15;rounded=0;glass=0;sketch=1;align=center;fontStyle=0" vertex="1" parent="Kzq7kg4RndgsLbTmRLNH-119">
          <mxGeometry y="48" width="84" height="24" as="geometry" />
        </mxCell>
        <mxCell id="Kzq7kg4RndgsLbTmRLNH-123" value="descriptionÂ " style="text;strokeColor=none;fillColor=none;spacingLeft=4;spacingRight=4;overflow=hidden;rotatable=0;points=[[0,0.5],[1,0.5]];portConstraint=eastwest;fontSize=14;rounded=0;glass=0;sketch=1;align=center;" vertex="1" parent="Kzq7kg4RndgsLbTmRLNH-119">
          <mxGeometry y="72" width="84" height="30" as="geometry" />
        </mxCell>
        <mxCell id="Kzq7kg4RndgsLbTmRLNH-124" value="" style="shape=partialRectangle;whiteSpace=wrap;html=1;bottom=1;right=1;left=1;top=0;fillColor=none;routingCenterX=-0.5;rounded=0;glass=0;sketch=1;fontSize=12;rotation=-180;" vertex="1" parent="1">
          <mxGeometry x="299" y="-815" width="85" height="30" as="geometry" />
        </mxCell>
        <mxCell id="Kzq7kg4RndgsLbTmRLNH-125" value="" style="endArrow=classic;html=1;strokeWidth=2;fontSize=12;rounded=0;endSize=3;startSize=11;jumpSize=3;jumpStyle=line;fillColor=#f5f5f5;strokeColor=#666666;targetPerimeterSpacing=-1;sourcePerimeterSpacing=-7;" edge="1" parent="1">
          <mxGeometry width="50" height="50" relative="1" as="geometry">
            <mxPoint x="341.5" y="-819" as="sourcePoint" />
            <mxPoint x="341.228260869565" y="-844" as="targetPoint" />
          </mxGeometry>
        </mxCell>
        <mxCell id="Kzq7kg4RndgsLbTmRLNH-126" value="private" style="rounded=0;whiteSpace=wrap;html=1;glass=0;sketch=1;fontSize=15;" vertex="1" parent="1">
          <mxGeometry x="352" y="-785" width="80" height="40" as="geometry" />
        </mxCell>
        <mxCell id="Kzq7kg4RndgsLbTmRLNH-127" value="" style="resizable=0;html=1;align=right;verticalAlign=bottom;rounded=0;glass=0;sketch=1;fontSize=17;" connectable="0" vertex="1" parent="1">
          <mxGeometry x="469.4985567627782" y="-907.4960082658133" as="geometry" />
        </mxCell>
        <mxCell id="Kzq7kg4RndgsLbTmRLNH-128" value="belong" style="shape=rhombus;perimeter=rhombusPerimeter;whiteSpace=wrap;html=1;align=center;rounded=0;glass=0;sketch=1;fontSize=17;" vertex="1" parent="1">
          <mxGeometry x="459.5" y="-938" width="80" height="62" as="geometry" />
        </mxCell>
        <mxCell id="Kzq7kg4RndgsLbTmRLNH-129" value="" style="endArrow=classic;html=1;rounded=0;strokeWidth=2;fontSize=17;entryX=-0.021;entryY=0.955;entryDx=0;entryDy=0;entryPerimeter=0;" edge="1" parent="1" target="Kzq7kg4RndgsLbTmRLNH-131">
          <mxGeometry relative="1" as="geometry">
            <mxPoint x="539.5" y="-907.5" as="sourcePoint" />
            <mxPoint x="589.5" y="-907" as="targetPoint" />
          </mxGeometry>
        </mxCell>
        <mxCell id="Kzq7kg4RndgsLbTmRLNH-130" value="Projects" style="swimlane;fontStyle=0;childLayout=stackLayout;horizontal=1;startSize=26;horizontalStack=0;resizeParent=1;resizeParentMax=0;resizeLast=0;collapsible=1;marginBottom=0;align=center;fontSize=14;rounded=0;glass=0;sketch=1;" vertex="1" parent="1">
          <mxGeometry x="585.5" y="-954" width="72" height="110" as="geometry" />
        </mxCell>
        <mxCell id="Kzq7kg4RndgsLbTmRLNH-131" value="ID" style="text;strokeColor=none;fillColor=none;spacingLeft=4;spacingRight=4;overflow=hidden;rotatable=0;points=[[0,0.5],[1,0.5]];portConstraint=eastwest;fontSize=14;rounded=0;glass=0;sketch=1;fontStyle=4;align=center;" vertex="1" parent="Kzq7kg4RndgsLbTmRLNH-130">
          <mxGeometry y="26" width="72" height="22" as="geometry" />
        </mxCell>
        <mxCell id="Kzq7kg4RndgsLbTmRLNH-132" value="name" style="text;strokeColor=none;fillColor=none;spacingLeft=4;spacingRight=4;overflow=hidden;rotatable=0;points=[[0,0.5],[1,0.5]];portConstraint=eastwest;fontSize=14;rounded=0;glass=0;sketch=1;align=center;" vertex="1" parent="Kzq7kg4RndgsLbTmRLNH-130">
          <mxGeometry y="48" width="72" height="24" as="geometry" />
        </mxCell>
        <mxCell id="Kzq7kg4RndgsLbTmRLNH-133" value="author" style="text;strokeColor=none;fillColor=none;spacingLeft=4;spacingRight=4;overflow=hidden;rotatable=0;points=[[0,0.5],[1,0.5]];portConstraint=eastwest;fontSize=14;rounded=0;glass=0;sketch=1;align=center;" vertex="1" parent="Kzq7kg4RndgsLbTmRLNH-130">
          <mxGeometry y="72" width="72" height="38" as="geometry" />
        </mxCell>
        <mxCell id="Kzq7kg4RndgsLbTmRLNH-134" value="" style="resizable=0;html=1;align=right;verticalAlign=bottom;rounded=0;glass=0;sketch=1;fontSize=17;" connectable="0" vertex="1" parent="1">
          <mxGeometry x="164.4985567627782" y="-906.9960082658131" as="geometry" />
        </mxCell>
        <mxCell id="Kzq7kg4RndgsLbTmRLNH-135" value="" style="resizable=0;html=1;align=right;verticalAlign=bottom;rounded=0;glass=0;sketch=1;fontSize=17;" connectable="0" vertex="1" parent="1">
          <mxGeometry x="161.9985567627782" y="-907.4960082658133" as="geometry" />
        </mxCell>
        <mxCell id="Kzq7kg4RndgsLbTmRLNH-137" value="authors" style="swimlane;fontStyle=0;childLayout=stackLayout;horizontal=1;startSize=26;horizontalStack=0;resizeParent=1;resizeParentMax=0;resizeLast=0;collapsible=1;marginBottom=0;align=center;fontSize=14;rounded=0;glass=0;sketch=1;" vertex="1" parent="1">
          <mxGeometry x="64" y="-939" width="72" height="72" as="geometry" />
        </mxCell>
        <mxCell id="Kzq7kg4RndgsLbTmRLNH-138" value="ID" style="text;strokeColor=none;fillColor=none;spacingLeft=4;spacingRight=4;overflow=hidden;rotatable=0;points=[[0,0.5],[1,0.5]];portConstraint=eastwest;fontSize=14;rounded=0;glass=0;sketch=1;fontStyle=4;align=center;" vertex="1" parent="Kzq7kg4RndgsLbTmRLNH-137">
          <mxGeometry y="26" width="72" height="22" as="geometry" />
        </mxCell>
        <mxCell id="Kzq7kg4RndgsLbTmRLNH-139" value="time" style="text;strokeColor=none;fillColor=none;spacingLeft=4;spacingRight=4;overflow=hidden;rotatable=0;points=[[0,0.5],[1,0.5]];portConstraint=eastwest;fontSize=14;rounded=0;glass=0;sketch=1;align=center;" vertex="1" parent="Kzq7kg4RndgsLbTmRLNH-137">
          <mxGeometry y="48" width="72" height="24" as="geometry" />
        </mxCell>
        <mxCell id="Kzq7kg4RndgsLbTmRLNH-140" value="open" style="rounded=0;whiteSpace=wrap;html=1;glass=0;sketch=1;fontSize=15;" vertex="1" parent="1">
          <mxGeometry x="250.75" y="-785" width="80" height="40" as="geometry" />
        </mxCell>
        <mxCell id="Kzq7kg4RndgsLbTmRLNH-141" value="left" style="shape=rhombus;perimeter=rhombusPerimeter;whiteSpace=wrap;html=1;align=center;rounded=0;glass=0;sketch=1;fontSize=17;" vertex="1" parent="1">
          <mxGeometry x="246" y="-714" width="80" height="62" as="geometry" />
        </mxCell>
        <mxCell id="Kzq7kg4RndgsLbTmRLNH-144" value="Calenders" style="swimlane;fontStyle=0;childLayout=stackLayout;horizontal=1;startSize=26;horizontalStack=0;resizeParent=1;resizeParentMax=0;resizeLast=0;collapsible=1;marginBottom=0;align=center;fontSize=14;rounded=0;glass=0;sketch=1;" vertex="1" parent="1">
          <mxGeometry x="-798" y="-635" width="90" height="86" as="geometry" />
        </mxCell>
        <mxCell id="Kzq7kg4RndgsLbTmRLNH-145" value="calendar_id" style="text;strokeColor=none;fillColor=none;spacingLeft=4;spacingRight=4;overflow=hidden;rotatable=0;points=[[0,0.5],[1,0.5]];portConstraint=eastwest;fontSize=12;rounded=0;glass=0;sketch=1;fontStyle=4;align=center;" vertex="1" parent="Kzq7kg4RndgsLbTmRLNH-144">
          <mxGeometry y="26" width="90" height="30" as="geometry" />
        </mxCell>
        <mxCell id="Kzq7kg4RndgsLbTmRLNH-146" value="ispublic" style="text;strokeColor=none;fillColor=none;spacingLeft=4;spacingRight=4;overflow=hidden;rotatable=0;points=[[0,0.5],[1,0.5]];portConstraint=eastwest;fontSize=12;rounded=0;glass=0;sketch=1;align=center;" vertex="1" parent="Kzq7kg4RndgsLbTmRLNH-144">
          <mxGeometry y="56" width="90" height="30" as="geometry" />
        </mxCell>
        <mxCell id="Kzq7kg4RndgsLbTmRLNH-149" style="edgeStyle=orthogonalEdgeStyle;rounded=0;jumpStyle=line;jumpSize=3;orthogonalLoop=1;jettySize=auto;html=1;exitX=0.5;exitY=1;exitDx=0;exitDy=0;strokeWidth=1.5;fontSize=14;startSize=11;endSize=3;sourcePerimeterSpacing=-7;targetPerimeterSpacing=-1;" edge="1" parent="1" source="Ww_PX7Yyjb7Hygiwz91s-88" target="Ww_PX7Yyjb7Hygiwz91s-88">
          <mxGeometry relative="1" as="geometry" />
        </mxCell>
        <mxCell id="Kzq7kg4RndgsLbTmRLNH-150" value="comments" style="swimlane;fontStyle=0;childLayout=stackLayout;horizontal=1;startSize=26;horizontalStack=0;resizeParent=1;resizeParentMax=0;resizeLast=0;collapsible=1;marginBottom=0;align=center;fontSize=14;rounded=0;glass=0;sketch=1;" vertex="1" parent="1">
          <mxGeometry x="250" y="-619" width="72" height="110" as="geometry" />
        </mxCell>
        <mxCell id="Kzq7kg4RndgsLbTmRLNH-151" value="ID" style="text;strokeColor=none;fillColor=none;spacingLeft=4;spacingRight=4;overflow=hidden;rotatable=0;points=[[0,0.5],[1,0.5]];portConstraint=eastwest;fontSize=14;rounded=0;glass=0;sketch=1;fontStyle=4;align=center;" vertex="1" parent="Kzq7kg4RndgsLbTmRLNH-150">
          <mxGeometry y="26" width="72" height="22" as="geometry" />
        </mxCell>
        <mxCell id="Kzq7kg4RndgsLbTmRLNH-152" value="writer" style="text;strokeColor=none;fillColor=none;spacingLeft=4;spacingRight=4;overflow=hidden;rotatable=0;points=[[0,0.5],[1,0.5]];portConstraint=eastwest;fontSize=14;rounded=0;glass=0;sketch=1;align=center;" vertex="1" parent="Kzq7kg4RndgsLbTmRLNH-150">
          <mxGeometry y="48" width="72" height="24" as="geometry" />
        </mxCell>
        <mxCell id="Kzq7kg4RndgsLbTmRLNH-153" value="time" style="text;strokeColor=none;fillColor=none;spacingLeft=4;spacingRight=4;overflow=hidden;rotatable=0;points=[[0,0.5],[1,0.5]];portConstraint=eastwest;fontSize=14;rounded=0;glass=0;sketch=1;align=center;" vertex="1" parent="Kzq7kg4RndgsLbTmRLNH-150">
          <mxGeometry y="72" width="72" height="38" as="geometry" />
        </mxCell>
        <mxCell id="Kzq7kg4RndgsLbTmRLNH-155" value="&lt;span style=&quot;font-size: 17px;&quot;&gt;1. Entity Issues is dependent on Entity Authors. If the account of a author is deleted,&lt;br&gt;&amp;nbsp; &amp;nbsp; &amp;nbsp;then his issues will remove as well&amp;nbsp; &amp;nbsp; &amp;nbsp; &amp;nbsp; &amp;nbsp; &amp;nbsp; &amp;nbsp; &amp;nbsp; &amp;nbsp; &amp;nbsp; &amp;nbsp; &amp;nbsp; &amp;nbsp; &amp;nbsp; &amp;nbsp; &amp;nbsp; &amp;nbsp; &amp;nbsp; &amp;nbsp; &amp;nbsp; &amp;nbsp; &amp;nbsp; &amp;nbsp; &amp;nbsp; &amp;nbsp; &amp;nbsp; &amp;nbsp; &amp;nbsp; &amp;nbsp; &amp;nbsp; &amp;nbsp; &amp;nbsp; &amp;nbsp; &amp;nbsp; &amp;nbsp; &amp;nbsp; &amp;nbsp; &amp;nbsp;&lt;br&gt;2. A issue has one exact author and a author can wirte any number of issues&amp;nbsp; &amp;nbsp; &amp;nbsp; &amp;nbsp; &amp;nbsp; &amp;nbsp;&lt;br&gt;3. A issue can be either an open or private issue&amp;nbsp; &amp;nbsp; &amp;nbsp; &amp;nbsp; &amp;nbsp; &amp;nbsp; &amp;nbsp; &amp;nbsp; &amp;nbsp; &amp;nbsp; &amp;nbsp; &amp;nbsp; &amp;nbsp; &amp;nbsp; &amp;nbsp; &amp;nbsp; &amp;nbsp; &amp;nbsp; &amp;nbsp; &amp;nbsp; &amp;nbsp; &amp;nbsp; &amp;nbsp; &amp;nbsp; &amp;nbsp; &amp;nbsp; &amp;nbsp; &amp;nbsp;&amp;nbsp;&lt;br&gt;4. If a issue is an open issue, it can left some comments by readers&amp;nbsp; &amp;nbsp; &amp;nbsp; &amp;nbsp; &amp;nbsp; &amp;nbsp; &amp;nbsp; &amp;nbsp; &amp;nbsp; &amp;nbsp; &amp;nbsp; &amp;nbsp; &amp;nbsp;&lt;br&gt;5. A issue must belong to one exact prject&amp;nbsp; &amp;nbsp; &amp;nbsp; &amp;nbsp; &amp;nbsp; &amp;nbsp; &amp;nbsp; &amp;nbsp; &amp;nbsp; &amp;nbsp; &amp;nbsp; &amp;nbsp; &amp;nbsp; &amp;nbsp; &amp;nbsp; &amp;nbsp; &amp;nbsp; &amp;nbsp; &amp;nbsp; &amp;nbsp; &amp;nbsp; &amp;nbsp; &amp;nbsp; &amp;nbsp; &amp;nbsp; &amp;nbsp; &amp;nbsp; &amp;nbsp; &amp;nbsp; &amp;nbsp; &amp;nbsp; &amp;nbsp; &amp;nbsp;&amp;nbsp;&lt;br&gt;&lt;br&gt;&lt;br&gt;&lt;/span&gt;" style="text;html=1;align=center;verticalAlign=middle;resizable=0;points=[];autosize=1;strokeColor=none;fillColor=none;fontSize=11;" vertex="1" parent="1">
          <mxGeometry x="95" y="-487" width="656" height="184" as="geometry" />
        </mxCell>
        <mxCell id="Kzq7kg4RndgsLbTmRLNH-156" value="write" style="shape=rhombus;double=1;perimeter=rhombusPerimeter;whiteSpace=wrap;html=1;align=center;rounded=0;glass=0;sketch=1;fontSize=15;" vertex="1" parent="1">
          <mxGeometry x="168" y="-925.5" width="88" height="42.5" as="geometry" />
        </mxCell>
      </root>
    </mxGraphModel>
  </diagram>
</mxfile>
